<svg width="22" height="22" viewBox="0 0 22 22" fill="none" xmlns="http://www.w3.org/2000/svg">
<path d="M11.5911 10.7167V12.4421H15.3538V15.3278H11.6175V15.3175C11.5176 15.3175 11.4137 15.3278 11.3138 15.3278C10.7588 15.3294 10.2091 15.2186 9.6974 15.0024C8.954 14.6866 8.317 14.1622 7.863 13.492C7.3055 12.6624 7.0638 11.6591 7.1824 10.6653C7.3009 9.6718 7.7717 8.754 8.5085 8.0801C9.2455 7.4063 10.1994 7.0213 11.1957 6.9954C12.1922 6.9696 13.1646 7.3047 13.9352 7.9395H21.273C21.1792 7.6448 21.0693 7.3541 20.9531 7.0717C20.217 5.321 19.0221 3.8036 17.4954 2.68072C15.9688 1.55782 14.1674 0.871502 12.2832 0.694922C10.3988 0.518292 8.5021 0.857892 6.7949 1.67768C5.0875 2.4974 3.6334 3.7666 2.5875 5.3503C1.54154 6.9338 0.942702 8.7726 0.854802 10.6706C0.766912 12.5689 1.19321 14.4554 2.08833 16.1295C2.98338 17.8037 4.3137 19.2029 5.938 20.1782C7.5622 21.1536 9.4193 21.6685 11.3118 21.6683H21.7072V10.7126L11.5911 10.7167ZM15.3538 19.9266H11.8886C11.7582 19.9266 11.6236 19.9409 11.481 19.943H11.1794C9.677 19.9218 8.2054 19.5125 6.9064 18.7543C5.6074 17.9962 4.5249 16.9149 3.763 15.6146C3.0012 14.3143 2.5859 12.8388 2.55701 11.3304C2.52812 9.8221 2.88674 8.3318 3.5982 7.0031C4.3097 5.6743 5.3501 4.552 6.6192 3.7442C7.8881 2.93664 9.3429 2.47081 10.8433 2.39171C12.3438 2.31273 13.8392 2.62295 15.1855 3.2929C16.5317 3.9627 17.6833 4.9696 18.5294 6.2162H14.4977C13.7309 5.7195 12.8593 5.409 11.9521 5.3096C11.045 5.2101 10.1273 5.3244 9.2717 5.6433C8.4163 5.9623 7.6466 6.4771 7.024 7.1468C6.4011 7.8166 5.9426 8.6229 5.6844 9.5017C5.4263 10.3806 5.3758 11.3078 5.5369 12.2097C5.698 13.1115 6.0663 13.9632 6.6126 14.6973C7.1589 15.4312 7.8679 16.0272 8.6837 16.438C9.4994 16.8487 10.3992 17.0629 11.3118 17.0634H15.3538V19.9266ZM20.0053 19.943H17.0741L17.0904 19.9327H17.0741V17.0673H20.0053V19.943ZM20.0053 15.3318H17.0741V12.4461H20.0053V15.3318Z" fill="white"/>
</svg>
